<svg width="20" height="20" viewBox="0 0 20 20" fill="none" xmlns="http://www.w3.org/2000/svg">
<path d="M2.9821 19.5808C7.63932 20.1397 12.3624 20.1397 17.0166 19.5808C18.7176 19.3922 20 17.914 20 16.1422L20 2.14292C20 0.961092 19.0721 0 17.931 0C16.9459 0 16.1197 0.717085 15.9126 1.67389C13.8965 1.0429 11.9097 0.720364 9.99932 0.714334C8.09045 0.720364 6.10362 1.04294 4.08745 1.67401C3.88042 0.717167 3.05445 0 2.06898 0C0.928278 0 0 0.961092 0 2.14292L0 16.1422C3.8147e-05 17.9133 1.28211 19.3915 2.9821 19.5808ZM15.8621 2.40562L15.8621 15.4075C11.9459 15.8189 8.10381 15.8186 4.13796 15.4071L4.13796 2.4057C6.14116 1.76362 8.11272 1.43446 9.99932 1.42863C11.8875 1.4345 13.8587 1.76362 15.8621 2.40562ZM0.689686 2.14292C0.689686 1.35504 1.30867 0.714334 2.06898 0.714334C2.82968 0.714334 3.44827 1.35508 3.44827 2.14292V2.14511C3.44827 2.14571 3.44827 2.14632 3.44827 2.14697L3.44827 15.7293C3.44827 15.9121 3.58171 16.0654 3.75722 16.0843C5.87136 16.315 7.94928 16.43 10.0206 16.43C12.092 16.43 14.1568 16.315 16.2434 16.0843C16.4189 16.0654 16.5517 15.9121 16.5517 15.7293L16.5517 2.153C16.5518 2.14826 16.5518 2.14353 16.5518 2.1388C16.554 1.35281 17.172 0.714294 17.931 0.714294C18.6917 0.714294 19.3103 1.35504 19.3103 2.14288L19.3103 16.1422C19.3103 17.5479 18.2927 18.7211 16.94 18.8712C12.3351 19.4233 7.66514 19.4237 3.05999 18.8712C3.05929 18.8708 3.05828 18.8708 3.05722 18.8708C1.70757 18.7211 0.689646 17.5479 0.689646 16.1422L0.689646 2.14292H0.689686Z" fill="#107477"/>
</svg>
