<svg width="20" height="20" viewBox="0 0 20 20" fill="none" xmlns="http://www.w3.org/2000/svg">
<path d="M3.02043 19.2258C7.66043 19.7826 12.3401 19.7826 16.9797 19.2258C18.5015 19.0569 19.6552 17.7272 19.6552 16.1422L19.6552 2.14298C19.6552 1.15652 18.8832 0.357225 17.9311 0.357225C16.979 0.357225 16.207 1.15652 16.207 2.14298L16.207 15.7293C12.0725 16.1858 7.98524 16.1861 3.79316 15.7293L3.79316 2.14298C3.79316 1.15652 3.02109 0.357225 2.06902 0.357225C1.11695 0.357225 0.344879 1.15652 0.344879 2.14298L0.344879 16.1422C0.344879 17.7272 1.49867 19.0569 3.02043 19.2258Z" fill="#DD5568"/>
<path d="M16.9798 19.2314C14.4881 19.5304 11.985 19.6632 9.48292 19.6407C11.6402 19.6221 13.7971 19.4889 15.9453 19.2314C17.4671 19.0625 18.6209 17.7325 18.6209 16.1474L18.6209 2.14819C18.6209 1.35031 18.1116 0.681738 17.4139 0.453512C17.5781 0.39958 17.7494 0.36244 17.9312 0.36244C18.8832 0.36244 19.6553 1.1621 19.6553 2.14819V16.1474C19.6554 17.7325 18.5016 19.0625 16.9798 19.2314Z" fill="#DD5568"/>
<path d="M3.79325 2.14296L3.79325 15.7147C7.98532 16.1711 12.0725 16.1708 16.207 15.7147V2.143C14.1043 1.44372 12.0415 1.07797 10.0001 1.07154C7.95875 1.07797 5.89602 1.44368 3.79325 2.14296Z" fill="#DD5568"/>
<path d="M10.0207 16.43C7.94934 16.43 5.87141 16.315 3.75727 16.0843C3.58176 16.0654 3.44828 15.9122 3.44828 15.7293L3.44828 2.14296C3.44828 1.35507 2.82965 0.714375 2.06898 0.714375C1.30863 0.714375 0.689688 1.35511 0.689688 2.14296L0.689688 16.1422C0.689688 17.5479 1.70762 18.7211 3.05727 18.8708C3.05828 18.8708 3.05934 18.8708 3.06004 18.8712C7.6652 19.4237 12.3352 19.4233 16.94 18.8712C18.2928 18.7211 19.3104 17.5479 19.3104 16.1422L19.3104 2.14296C19.3104 1.35507 18.6918 0.714375 17.9311 0.714375C17.1707 0.714375 16.5518 1.35511 16.5518 2.14296L16.5518 15.7293C16.5518 15.9122 16.419 16.0654 16.2435 16.0843C14.1569 16.315 12.0921 16.43 10.0207 16.43ZM2.06898 4.19617e-05C3.21004 4.19617e-05 4.13797 0.96113 4.13797 2.14296L4.13797 15.4071C8.10383 15.8185 11.9459 15.8189 15.8621 15.4075L15.8621 2.14292C15.8621 0.96113 16.7904 0 17.9311 0C19.0721 4.00543e-05 20 0.96113 20 2.14296L20 16.1422C20 17.914 18.7176 19.3922 17.0166 19.5808C12.3624 20.1397 7.63934 20.1397 2.98207 19.5808C1.28207 19.3915 0 17.9133 0 16.1422L0 2.14296C0 0.96113 0.928282 4.19617e-05 2.06898 4.19617e-05Z" fill="#91303E"/>
<path d="M3.79325 2.14298H3.78981H3.79325ZM15.8622 2.40479C13.8587 1.763 11.8877 1.43476 9.9991 1.42869C8.11254 1.43476 6.14153 1.763 4.13809 2.40479L4.13809 15.3925C8.1036 15.8033 11.9457 15.804 15.8622 15.3929L15.8622 2.40479H15.8622ZM9.99945 0.714397C12.036 0.720831 14.1595 1.0869 16.3125 1.80297C16.455 1.85047 16.5518 1.98762 16.5518 2.14298V15.7147C16.5518 15.8976 16.4187 16.0504 16.2436 16.0697C12.0698 16.5305 7.98528 16.5305 3.75735 16.0697C3.58149 16.0508 3.44837 15.8976 3.44837 15.7147L3.44837 2.14302C3.44837 1.98766 3.54528 1.85051 3.68766 1.80301C5.84083 1.0869 7.96461 0.720831 9.99945 0.714397Z" fill="#91303E"/>
</svg>
